<svg id="e0C9KH34noq1" xmlns="http://www.w3.org/2000/svg" xmlns:xlink="http://www.w3.org/1999/xlink" viewBox="0 0 17 7" shape-rendering="geometricPrecision" text-rendering="geometricPrecision"><g transform="translate(3 0.000061)"><g transform="translate(-199.399-536.473)"><path d="M206.04921,542.89329c-1.717-.09085-3.05874-1.61496-3.59713-3.19103-.32619-.92504-.14703-2.31276.93966-2.5726c1.57441-.2674,2.88086,1.07001,3.61307,2.34987.5216.94927.80997,2.44415-.16802,3.19662-.23221.15573-.51292.21819-.78758.21714Zm2.73525-5.40329c-1.93445-1.1749-4.37805-1.26642-6.49633-.6089-1.34183.46915-2.87644,1.46713-2.88913,3.0914-.00093,1.59146,1.48,2.58425,2.79049,3.05709c2.07469.67865,4.46847.61897,6.40552-.4629c1.09648-.58336,2.06833-1.79134,1.73878-3.13026-.18121-.86097-.84075-1.5052-1.54933-1.94643Z"/></g></g><rect width="0.02" height="0.02" rx="0" ry="0" transform="translate(14.715714 1.34)" fill="#d2dbed" stroke-width="0"/><rect width="17" height="1.4" rx="0" ry="0" transform="translate(-.000067 2.800114)" stroke-width="0"/></svg>
