<?xml version="1.0" encoding="UTF-8" standalone="no"?>
<svg xmlns="http://www.w3.org/2000/svg" height="859.86707" width="864.52185" version="1.1">
  <g transform="matrix(0.1,0,0,-0.1,-92.365625,1163.1906)">
    <g>
      <g fill="#fff">
        <path d="m1403.23 3528.82h1165.58v7161.12h-1165.58v-7161.12z"/>
        <path d="m2568.82 3528.82h1165.59v7161.12h-1165.59v-7161.12z"/>
        <path d="m3734.4 3528.82h1165.59v7161.12h-1165.59v-7161.12z"/>
        <path d="m4899.99 3528.82h1165.24v7161.12h-1165.24v-7161.12z"/>
        <path d="m6065.23 3528.82h1165.59v7161.12h-1165.59v-7161.12z"/>
        <path d="m7230.81 3528.82h1165.58v7161.12h-1165.58v-7161.12z"/>
        <path d="m8396.4 3528.82h1165.58v7161.12h-1165.58v-7161.12z"/>
      </g>
      <g stroke="#000" stroke-width="10" fill="none">
        <path d="m1403.23 3528.82h1165.58v7161.12h-1165.58v-7161.12z"/>
        <path d="m2568.82 3528.82h1165.59v7161.12h-1165.59v-7161.12z"/>
        <path d="m3734.4 3528.82h1165.59v7161.12h-1165.59v-7161.12z"/>
        <path d="m4899.99 3528.82h1165.24v7161.12h-1165.24v-7161.12z"/>
        <path d="m6065.23 3528.82h1165.59v7161.12h-1165.59v-7161.12z"/>
        <path d="m7230.81 3528.82h1165.58v7161.12h-1165.58v-7161.12z"/>
        <path d="m8396.4 3528.82h1165.58v7161.12h-1165.58v-7161.12z"/>
      </g>
      <g>
        <path d="m2168.79 5751.27h627.223v4938.67h-627.223v-4938.67z"/>
        <path d="m3551.46 5751.27h627.219v4938.67h-627.219v-4938.67z"/>
        <path d="m5610.84 5751.27h627.219v4938.67h-627.219v-4938.67z"/>
        <path d="m6939.5 5751.27h627.219v4938.67h-627.219v-4938.67z"/>
        <path d="m8268.16 5751.27h627.223v4938.67h-627.223v-4938.67z"/>
      </g>
    </g>
    <g stroke="#000" stroke-width="5">
      <g>
        <path d="m8268.16 11480.2h627.23"/>
        <path d="m8354.23 11511.6-86.07-31.4 86.07-31.3v62.7z"/>
        <path d="m8808.97 11511.6 86.42-31.4-86.42-31.3v62.7z"/>
        <path d="m6238.06 11480.2h-627.22"/>
        <path d="m6151.99 11448.9 86.07 31.3-86.07 31.4v-62.7z"/>
        <path d="m5697.26 11448.9-86.42 31.3 86.42 31.4v-62.7z"/>
        <path d="m4178.68 11480.2h-627.22"/>
        <path d="m4092.62 11448.9 86.06 31.3-86.06 31.4v-62.7z"/>
        <path d="m3637.88 11448.9-86.42 31.3 86.42 31.4v-62.7z"/>
        <path d="m6939.5 11480.2h627.22"/>
        <path d="m7025.57 11511.6-86.07-31.4 86.07-31.3v62.7z"/>
        <path d="m7480.65 11511.6 86.07-31.4-86.07-31.3v62.7z"/>
        <path d="m2168.79 11480.2h-765.56"/>
        <path d="m2082.38 11448.9 86.41 31.3-86.41 31.4v-62.7z"/>
        <path d="m1489.3 11448.9-86.07 31.3 86.07 31.4v-62.7z"/>
        <path d="m8268.16 11480.2h-701.44"/>
        <path d="m8181.75 11448.9 86.41 31.3-86.41 31.4v-62.7z"/>
        <path d="m7652.79 11448.9-86.07 31.3 86.07 31.4v-62.7z"/>
        <path d="m6939.5 11480.2h-701.44"/>
        <path d="m6853.43 11448.9 86.07 31.3-86.07 31.4v-62.7z"/>
        <path d="m6324.48 11448.9-86.42 31.3 86.42 31.4v-62.7z"/>
        <path d="m3551.46 11480.2h-755.45"/>
        <path d="m3465.39 11448.9 86.07 31.3-86.07 31.4v-62.7z"/>
        <path d="m2882.08 11448.9-86.07 31.3 86.07 31.4v-62.7z"/>
        <path d="m2168.79 11480.2h627.22"/>
        <path d="m2254.86 11511.6-86.07-31.4 86.07-31.3v62.7z"/>
        <path d="m2709.59 11511.6 86.42-31.4-86.42-31.3v62.7z"/>
        <path d="m4178.68 11480.2h721.31"/>
        <path d="m4265.1 11511.6-86.42-31.4 86.42-31.3v62.7z"/>
        <path d="m4813.57 11511.6 86.42-31.4-86.42-31.3v62.7z"/>
        <path d="m5610.84 11480.2h-710.85"/>
        <path d="m5524.77 11448.9 86.07 31.3-86.07 31.4v-62.7z"/>
        <path d="m4986.06 11448.9-86.07 31.3 86.07 31.4v-62.7z"/>
        <path d="m8895.39 11480.2h666.59"/>
        <path d="m8981.45 11513.7-86.06-33.5 86.06-33.4v66.9z"/>
        <path d="m9475.91 11513.7 86.07-33.5-86.07-33.4v66.9z"/>
      </g>
      <g stroke-dasharray="5, 5">
        <path d="m8268.16 10689.9v790.3"/>
        <path d="m8895.39 11480.2v-790.3"/>
        <path d="m5610.84 11480.2v-790.3"/>
        <path d="m6238.06 10689.9v790.3"/>
        <path d="m3551.46 11480.2v-790.3"/>
        <path d="m4178.68 10689.9v790.3"/>
        <path d="m6939.5 10689.9v790.3"/>
        <path d="m7566.72 11480.2v-790.3"/>
        <path d="m2803.33 11480.2v-790.3"/>
        <path d="m2176.11 10689.9v790.3"/>
        <path d="m1403.23 10689.9v790.3"/>
        <path d="m4899.99 10689.9v790.3"/>
        <path d="m9561.98 11480.2v-790.3"/>
      </g>
    </g>
    <g stroke="#000" stroke-width="5">
      <g stroke-dasharray="5, 5">
        <path d="m1403.23 10689.9h-444.628"/>
        <path d="m2144.05 5751.27h-1185.448"/>
        <path d="m1403.23 3528.82h-444.628"/>
      </g>
      <g>
        <path d="m958.602 5751.27v4938.63"/>
        <path d="m927.242 5837.34 31.36-86.07 31.363 86.07h-62.723z"/>
        <path d="m927.242 10603.9 31.36 86 31.363-86h-62.723z"/>
        <path d="m958.602 3528.82v2222.45"/>
        <path d="m927.242 3615.24 31.36-86.42 31.363 86.42h-62.723z"/>
        <path d="m927.242 5665.2 31.36 86.07 31.363-86.07h-62.723z"/>
      </g>
    </g>
    <g stroke="#000" stroke-width="5">
      <g>
        <path d="m1403.23 3232.63h1165.59"/>
        <path d="m1489.3 3254.59-86.07-21.96 86.07-22.3v44.26z"/>
        <path d="m2482.4 3254.59 86.42-21.96-86.42-22.3v44.26z"/>
        <path d="m2568.82 3232.63h1165.58"/>
        <path d="m2654.89 3254.59-86.07-21.96 86.07-22.3v44.26z"/>
        <path d="m3647.98 3254.59 86.42-21.96-86.42-22.3v44.26z"/>
        <path d="m3734.4 3232.63h1165.59"/>
        <path d="m3820.47 3254.59-86.07-21.96 86.07-22.3v44.26z"/>
        <path d="m4813.57 3254.59 86.42-21.96-86.42-22.3v44.26z"/>
        <path d="m4899.99 3232.63h1165.24"/>
        <path d="m4986.06 3254.59-86.07-21.96 86.07-22.3v44.26z"/>
        <path d="m5979.16 3254.59 86.07-21.96-86.07-22.3v44.26z"/>
        <path d="m6065.23 3232.63h1165.58"/>
        <path d="m6151.64 3254.59-86.41-21.96 86.41-22.3v44.26z"/>
        <path d="m7144.74 3254.59 86.07-21.96-86.07-22.3v44.26z"/>
        <path d="m7230.81 3232.63h1165.58"/>
        <path d="m7317.23 3254.59-86.42-21.96 86.42-22.3v44.26z"/>
        <path d="m8310.33 3254.59 86.07-21.96-86.07-22.3v44.26z"/>
        <path d="m8396.4 3232.63h1165.58"/>
        <path d="m8482.81 3254.59-86.42-21.96 86.42-22.3v44.26z"/>
        <path d="m9475.91 3254.59 86.07-21.96-86.07-22.3v44.26z"/>
      </g>
      <g stroke-dasharray="5, 5">
        <path d="m1403.23 3528.82v-296.19"/>
        <path d="m2568.82 3232.63v296.19"/>
        <path d="m3734.4 3232.63v296.19"/>
        <path d="m4899.99 3232.63v296.19"/>
        <path d="m6065.23 3232.63v296.19"/>
        <path d="m7230.81 3232.63v296.19"/>
        <path d="m8396.4 3232.63v296.19"/>
        <path d="m9561.98 3232.63v296.19"/>
      </g>
    </g>
    <g font-size="139px" font-family="Liberation Sans,Arial,sans-serif" fill="#000" style="text-anchor:middle;text-align:center">
      <g>
        <text transform="scale(1,-1)" y="-11532" x="1781.259">15.05</text>
        <text transform="scale(1,-1)" y="-11532" x="2478.1919">12.70</text>
        <text transform="scale(1,-1)" y="-11532" x="3169.5271">15.30</text>
        <text transform="scale(1,-1)" y="-11532" x="4534.584">15.05</text>
        <text transform="scale(1,-1)" y="-11532" x="3860.8621">12.70</text>
        <text transform="scale(1,-1)" y="-11532" x="5920.2422">12.70</text>
        <text transform="scale(1,-1)" y="-11532" x="7248.9019">12.70</text>
        <text transform="scale(1,-1)" y="-11532" x="8577.5674">12.70</text>
        <text transform="scale(1,-1)" y="-11532" x="5250.6641">13.95</text>
        <text transform="scale(1,-1)" y="-11532" x="9223.9336">13.95</text>
        <text transform="scale(1,-1)" y="-11532" x="6584.5718">14.20</text>
        <text transform="scale(1,-1)" y="-11532" x="7913.2319">14.20</text>
      </g>
      <g>
        <text transform="scale(1,-1)" y="-3035" x="1987.2128">23.6</text>
        <text transform="scale(1,-1)" y="-3035" x="3152.7979">23.6</text>
        <text transform="scale(1,-1)" y="-3035" x="4318.3828">23.6</text>
        <text transform="scale(1,-1)" y="-3035" x="5483.7979">23.6</text>
        <text transform="scale(1,-1)" y="-3035" x="6649.2075">23.6</text>
        <text transform="scale(1,-1)" y="-3035" x="7814.7876">23.6</text>
        <text transform="scale(1,-1)" y="-3035" x="8980.3779">23.6</text>
      </g>
      <g>
        <text transform="scale(1,-1)" y="-11107.831" x="1128.2893">[mm]</text>
        <text transform="scale(1,-1)" y="-8171.4805" x="1084.9335">100</text>
        <text transform="scale(1,-1)" y="-4591.144" x="1059.6176">45</text>
      </g>
    </g>
  </g>
</svg>
